<svg height="441" width="1027" viewBox="473 309 1027 441" style="background-color:transparent;" preserveAspectRatio="xMinYMin meet" xmlns:xlink="http://www.w3.org/1999/xlink" xmlns="http://www.w3.org/2000/svg"><g transform="matrix(1,0,0,1,-1162,-178)"><path style="fill:none;stroke:#333333;stroke-width:3.0;" d="m 1650 596l 321 2l 0 27l-321-2z"/><path style="fill:none;stroke:#333333;stroke-width:3.0;" d="m 1650 621l 0 294l 321-2l 0-294"/><text style="font-weight:bold; font-size: 12px; text-anchor: middle; font-family: arial,helvetica; fill: #333333;" y="613" x="1810">University X in city A</text></g><g transform="matrix(1,0,0,1,25,120)"><g transform="matrix(1,0,0,1,616,535)"><path style="fill:none;stroke:#333333;stroke-width:3.0;" d="m 2.1226 0.0672l 134.7338 1.3449l-3.0257 48.5143l-133.6659-0.1920z"/></g><text style="font-weight:bold; font-size: 12px; text-anchor: middle; font-family: arial,helvetica; fill: #333333;" y="559" x="684">Build environment D</text></g><g transform="matrix(1,0,0,1,0,0)"><path style="fill:none;stroke:#333333;stroke-width:2;" d="M 639 496C 609 496 609 578 579 578"/><text style="font-weight:Normal; font-size: 12px; text-anchor: middle; font-family: arial,helvetica; fill: #333333;" y="573" x="600"/><text style="font-weight:Normal; font-size: 12px; text-anchor: start; font-family: arial,helvetica; fill: #333333;" y="537" x="609"/><text style="font-weight:Normal; font-size: 12px; text-anchor: middle; font-family: arial,helvetica; fill: #333333;" y="515" x="643"/></g><g transform="matrix(1,0,0,1,0,0)"><path style="fill:none;stroke:#333333;stroke-width:2;" d="M 639 557C 609 557 609 575 579 575"/><text style="font-weight:Normal; font-size: 12px; text-anchor: middle; font-family: arial,helvetica; fill: #333333;" y="584" x="598"/><text style="font-weight:Normal; font-size: 12px; text-anchor: start; font-family: arial,helvetica; fill: #333333;" y="566" x="609"/><text style="font-weight:Normal; font-size: 12px; text-anchor: middle; font-family: arial,helvetica; fill: #333333;" y="575" x="630"/></g><g transform="matrix(1,0,0,1,0,0)"><path style="fill:none;stroke:#333333;stroke-width:2;" d="M 639 617C 609 617 609 575 579 575"/><text style="font-weight:Normal; font-size: 12px; text-anchor: middle; font-family: arial,helvetica; fill: #333333;" y="596" x="584"/><text style="font-weight:Normal; font-size: 12px; text-anchor: start; font-family: arial,helvetica; fill: #333333;" y="596" x="609"/><text style="font-weight:Normal; font-size: 12px; text-anchor: middle; font-family: arial,helvetica; fill: #333333;" y="621" x="619"/></g><g transform="matrix(1,0,0,1,0,0)"><path style="fill:none;stroke:#333333;stroke-width:2;" d="M 639 680C 609 680 609 577 579 577"/><text style="font-weight:Normal; font-size: 12px; text-anchor: middle; font-family: arial,helvetica; fill: #333333;" y="597" x="575"/><text style="font-weight:Normal; font-size: 12px; text-anchor: start; font-family: arial,helvetica; fill: #333333;" y="628" x="609"/><text style="font-weight:Normal; font-size: 12px; text-anchor: middle; font-family: arial,helvetica; fill: #333333;" y="675" x="619"/></g><g transform="matrix(1,0,0,1,-47,-41)"><path style="fill:none;stroke:#333333;stroke-width:3.0;" d="m 872 461l 321 2l 0 27l-321-2z"/><path style="fill:none;stroke:#333333;stroke-width:3.0;" d="m 872 486l 0 291l 321-2l 0-291"/><text style="font-weight:bold; font-size: 12px; text-anchor: middle; font-family: arial,helvetica; fill: #333333;" y="478" x="1032">Company Y in city B</text></g><g transform="matrix(1,0,0,1,31,183)"><g transform="matrix(1,0,0,1,947,408)"><path style="fill:none;stroke:#333333;stroke-width:3.0;" d="m 2.1226 0.0672l 134.7338 1.3449l-3.0257 48.5143l-133.6659-0.1920z"/></g><text style="font-weight:bold; font-size: 12px; text-anchor: middle; font-family: arial,helvetica; fill: #333333;" y="432" x="1015">Build environment A</text></g><g transform="matrix(1,0,0,1,0,0)"><path style="fill:none;stroke:#333333;stroke-width:2;" d="M 976 495C 946 495 946 580 916 580"/><text style="font-weight:Normal; font-size: 12px; text-anchor: middle; font-family: arial,helvetica; fill: #333333;" y="574" x="937"/><text style="font-weight:Normal; font-size: 12px; text-anchor: start; font-family: arial,helvetica; fill: #333333;" y="537" x="946"/><text style="font-weight:Normal; font-size: 12px; text-anchor: middle; font-family: arial,helvetica; fill: #333333;" y="514" x="980"/></g><g transform="matrix(1,0,0,1,0,0)"><path style="fill:none;stroke:#333333;stroke-width:2;" d="M 976 556C 946 556 946 577 916 577"/><text style="font-weight:Normal; font-size: 12px; text-anchor: middle; font-family: arial,helvetica; fill: #333333;" y="585" x="935"/><text style="font-weight:Normal; font-size: 12px; text-anchor: start; font-family: arial,helvetica; fill: #333333;" y="566" x="946"/><text style="font-weight:Normal; font-size: 12px; text-anchor: middle; font-family: arial,helvetica; fill: #333333;" y="574" x="967"/></g><g transform="matrix(1,0,0,1,0,0)"><path style="fill:none;stroke:#333333;stroke-width:2;" d="M 976 616C 946 616 946 579 916 579"/><text style="font-weight:Normal; font-size: 12px; text-anchor: middle; font-family: arial,helvetica; fill: #333333;" y="599" x="922"/><text style="font-weight:Normal; font-size: 12px; text-anchor: start; font-family: arial,helvetica; fill: #333333;" y="597" x="946"/><text style="font-weight:Normal; font-size: 12px; text-anchor: middle; font-family: arial,helvetica; fill: #333333;" y="621" x="957"/></g><g transform="matrix(1,0,0,1,-47,-41)"><g transform="matrix(1,0,0,1,898,582)"><path style="fill:none;stroke:#333333;stroke-width:3.0;" d="m 0.0347 11.3731l 0.8277 50.2519l 18.2177 11.3473l-0.8282-48.6313"/><path style="fill:none;stroke:#333333;stroke-width:3.0;" d="m 42.2660 0.0258c 0 0-39.7477 7.2944-40.5754 9.7265c-0.8282 2.4316 16.5612 14.5895 16.5612 14.5895l 44.7149-13.7787l-20.7007-10.5372z"/><path style="fill:none;stroke:#333333;stroke-width:3.0;" d="m 62.9667 10.5624l-0.8277 50.2519l-43.0590 12.1581l-0.9088-48.6313"/><path style="fill:none;stroke:#333333;stroke-width:3.0;" d="m 6.6588 30.0146l 5.7965 4.0526"/></g><text style="font-weight:bold; font-size: 12px; text-anchor: middle; font-family: arial,helvetica; fill: #333333;" y="670" x="929">Cloud client</text></g><g transform="matrix(1,0,0,1,-47,-44)"><g transform="matrix(1,0,0,1,1025,514)"><path style="fill:none;stroke:#333333;stroke-width:3.0;" d="m 2.1226 0.0672l 134.7338 1.3449l-3.0257 48.5143l-133.6659-0.1920z"/></g><text style="font-weight:bold; font-size: 12px; text-anchor: middle; font-family: arial,helvetica; fill: #333333;" y="538" x="1093">Test platform C</text></g><g transform="matrix(1,0,0,1,-103,20)"><g transform="matrix(1,0,0,1,1420,570)"><path style="fill:none;stroke:#333333;stroke-width:3.0;" d="m 2.1226 0.0672l 134.7338 1.3449l-3.0257 48.5143l-133.6659-0.1920z"/></g><text style="font-weight:bold; font-size: 12px; text-anchor: middle; font-family: arial,helvetica; fill: #333333;" y="594" x="1488">Build environment D</text></g><g transform="matrix(1,0,0,1,0,0)"><path style="fill:none;stroke:#333333;stroke-width:2;" d="M 1315 555C 1285 555 1285 576 1255 576"/><text style="font-weight:Normal; font-size: 12px; text-anchor: middle; font-family: arial,helvetica; fill: #333333;" y="584" x="1274"/><text style="font-weight:Normal; font-size: 12px; text-anchor: start; font-family: arial,helvetica; fill: #333333;" y="565" x="1285"/><text style="font-weight:Normal; font-size: 12px; text-anchor: middle; font-family: arial,helvetica; fill: #333333;" y="573" x="1306"/></g><g transform="matrix(1,0,0,1,0,0)"><path style="fill:none;stroke:#333333;stroke-width:2;" d="M 1315 615C 1285 615 1285 578 1255 578"/><text style="font-weight:Normal; font-size: 12px; text-anchor: middle; font-family: arial,helvetica; fill: #333333;" y="598" x="1261"/><text style="font-weight:Normal; font-size: 12px; text-anchor: start; font-family: arial,helvetica; fill: #333333;" y="596" x="1285"/><text style="font-weight:Normal; font-size: 12px; text-anchor: middle; font-family: arial,helvetica; fill: #333333;" y="620" x="1296"/></g><g transform="matrix(1,0,0,1,-103,20)"><g transform="matrix(1,0,0,1,1293,520)"><path style="fill:none;stroke:#333333;stroke-width:3.0;" d="m 0.0347 11.3731l 0.8277 50.2519l 18.2177 11.3473l-0.8282-48.6313"/><path style="fill:none;stroke:#333333;stroke-width:3.0;" d="m 42.2660 0.0258c 0 0-39.7477 7.2944-40.5754 9.7265c-0.8282 2.4316 16.5612 14.5895 16.5612 14.5895l 44.7149-13.7787l-20.7007-10.5372z"/><path style="fill:none;stroke:#333333;stroke-width:3.0;" d="m 62.9667 10.5624l-0.8277 50.2519l-43.0590 12.1581l-0.9088-48.6313"/><path style="fill:none;stroke:#333333;stroke-width:3.0;" d="m 6.6588 30.0146l 5.7965 4.0526"/></g><text style="font-weight:bold; font-size: 12px; text-anchor: middle; font-family: arial,helvetica; fill: #333333;" y="608" x="1324">Cloud client</text></g><g transform="matrix(1,0,0,1,-103,20)"><g transform="matrix(1,0,0,1,1420,510)"><path style="fill:none;stroke:#333333;stroke-width:3.0;" d="m 2.1226 0.0672l 134.7338 1.3449l-3.0257 48.5143l-133.6659-0.1920z"/></g><text style="font-weight:bold; font-size: 12px; text-anchor: middle; font-family: arial,helvetica; fill: #333333;" y="534" x="1488">Build environment C</text></g><g transform="matrix(1,0,0,1,31,183)"><g transform="matrix(1,0,0,1,947,348)"><path style="fill:none;stroke:#333333;stroke-width:3.0;" d="m 2.1226 0.0672l 134.7338 1.3449l-3.0257 48.5143l-133.6659-0.1920z"/></g><text style="font-weight:bold; font-size: 12px; text-anchor: middle; font-family: arial,helvetica; fill: #333333;" y="372" x="1015">Test platform D</text></g><g transform="matrix(1,0,0,1,-103,20)"><path style="fill:none;stroke:#333333;stroke-width:3.0;" d="m 1267 399l 321 2l 0 27l-321-2z"/><path style="fill:none;stroke:#333333;stroke-width:3.0;" d="m 1267 424l 0 291l 321-2l 0-291"/><text style="font-weight:bold; font-size: 12px; text-anchor: middle; font-family: arial,helvetica; fill: #333333;" y="416" x="1427">Developer Z in city C</text></g><g transform="matrix(1,0,0,1,-1163,307)"><g transform="matrix(1,0,0,1,1677,232)"><path style="fill:none;stroke:#333333;stroke-width:3.0;" d="m 0.0347 11.3731l 0.8277 50.2519l 18.2177 11.3473l-0.8282-48.6313"/><path style="fill:none;stroke:#333333;stroke-width:3.0;" d="m 42.2660 0.0258c 0 0-39.7477 7.2944-40.5754 9.7265c-0.8282 2.4316 16.5612 14.5895 16.5612 14.5895l 44.7149-13.7787l-20.7007-10.5372z"/><path style="fill:none;stroke:#333333;stroke-width:3.0;" d="m 62.9667 10.5624l-0.8277 50.2519l-43.0590 12.1581l-0.9088-48.6313"/><path style="fill:none;stroke:#333333;stroke-width:3.0;" d="m 6.6588 30.0146l 5.7965 4.0526"/></g><text style="font-weight:bold; font-size: 12px; text-anchor: middle; font-family: arial,helvetica; fill: #333333;" y="320" x="1708">Cloud client</text></g><g transform="matrix(1,0,0,1,-1010,-73)"><g transform="matrix(1,0,0,1,1651,544)"><path style="fill:none;stroke:#333333;stroke-width:3.0;" d="m 2.1226 0.0672l 134.7338 1.3449l-3.0257 48.5143l-133.6659-0.1920z"/></g><text style="font-weight:bold; font-size: 12px; text-anchor: middle; font-family: arial,helvetica; fill: #333333;" y="568" x="1719">Test platform A</text></g><g transform="matrix(1,0,0,1,-892,-200)"><g transform="matrix(1,0,0,1,1826,521)"><path style="fill:none;stroke:#333333;stroke-width:3.0;" d="m 1.5803 0.0511l 100.3128 1.0221l-2.2527 36.8708l-99.5177-0.1459z"/></g><text style="font-weight:bold; font-size: 12px; text-anchor: middle; font-family: arial,helvetica; fill: #333333;" y="545" x="1877">CI Broker</text></g><g><path style="fill:none;stroke:#333333;stroke-width:2;" d="M 544 535C 544 535 539.8565 434.9949 572 404 659.2221 319.8945 930 341 930 341"/><polyline style="fill:#ffffff;stroke:#333333;stroke-width:2;fill-opacity:0;" points="912,349 930,341 913,329"/><text style="font-weight:Normal; font-size: 12px; text-anchor: middle; font-family: arial,helvetica; fill: #333333;" y="329" x="914"/><text style="font-weight:Normal; font-size: 12px; text-anchor: start; font-family: arial,helvetica; fill: #333333;" y="392" x="572"/><text style="font-weight:Normal; font-size: 12px; text-anchor: middle; font-family: arial,helvetica; fill: #333333;" y="520" x="531"/><polyline style="fill:#ffffff;stroke:#333333;stroke-width:2;fill-opacity:0;" points="553,517 544,535 533,517"/></g><g transform="matrix(1,0,0,1,0,0)"><path style="fill:none;stroke:#333333;stroke-width:2;" d="M 887 537C 887 537 900.5782 442.3323 933 412 945.9400 399.8939 972.1869 410.2080 984 397 991.6721 388.4220 990 363 990 363"/><polyline style="fill:#ffffff;stroke:#333333;stroke-width:2;fill-opacity:0;" points="1001,379 990,363 981,380"/><text style="font-weight:Normal; font-size: 12px; text-anchor: middle; font-family: arial,helvetica; fill: #333333;" y="374" x="973"/><text style="font-weight:Normal; font-size: 12px; text-anchor: start; font-family: arial,helvetica; fill: #333333;" y="398" x="958"/><text style="font-weight:Normal; font-size: 12px; text-anchor: middle; font-family: arial,helvetica; fill: #333333;" y="520" x="876"/><polyline style="fill:#ffffff;stroke:#333333;stroke-width:2;fill-opacity:0;" points="899,521 887,537 880,518"/></g><g><path style="fill:none;stroke:#333333;stroke-width:2;" d="M 1221 536C 1221 438 1130.5 340 1040 340"/><polyline style="fill:#ffffff;stroke:#333333;stroke-width:2;fill-opacity:0;" points="1057,330 1040,340 1056,350"/><text style="font-weight:Normal; font-size: 12px; text-anchor: middle; font-family: arial,helvetica; fill: #333333;" y="361" x="1037"/><text style="font-weight:Normal; font-size: 12px; text-anchor: start; font-family: arial,helvetica; fill: #333333;" y="401" x="1164"/><text style="font-weight:Normal; font-size: 12px; text-anchor: middle; font-family: arial,helvetica; fill: #333333;" y="538" x="1200"/><polyline style="fill:#ffffff;stroke:#333333;stroke-width:2;fill-opacity:0;" points="1230,518 1221,536 1210,519"/></g><g transform="matrix(1,0,0,1,-24,152)"><g transform="matrix(1,0,0,1,665,380)"><path style="fill:none;stroke:#333333;stroke-width:3.0;" d="m 2.1226 0.0672l 134.7338 1.3449l-3.0257 48.5143l-133.6659-0.1920z"/></g><text style="font-weight:bold; font-size: 12px; text-anchor: middle; font-family: arial,helvetica; fill: #333333;" y="404" x="733">Test platform B</text></g><g transform="matrix(1,0,0,1,-26,121)"><g transform="matrix(1,0,0,1,667,471)"><path style="fill:none;stroke:#333333;stroke-width:3.0;" d="m 2.1226 0.0672l 134.7338 1.3449l-3.0257 48.5143l-133.6659-0.1920z"/></g><text style="font-weight:bold; font-size: 12px; text-anchor: middle; font-family: arial,helvetica; fill: #333333;" y="495" x="735">Build environment A</text></g><text style="font-weight:Normal; font-size: 16px; text-anchor: end; font-family: Arial; fill: #ccc;" y="735" x="1485">http://sketchboard.io</text></svg>