<svg height="421" width="689" viewBox="473 329 689 421" style="background-color:transparent;" preserveAspectRatio="xMinYMin meet" xmlns:xlink="http://www.w3.org/1999/xlink" xmlns="http://www.w3.org/2000/svg"><g><path style="fill:none;stroke:#333333;stroke-width:3.0;" d="m 488 418l 321 2l 0 27l-321-2z"/><path style="fill:none;stroke:#333333;stroke-width:3.0;" d="m 488 443l 0 294l 321-2l 0-294"/><text style="font-weight:bold; font-size: 12px; text-anchor: middle; font-family: arial,helvetica; fill: #333333;" y="435" x="648">University X in city A</text></g><g><g transform="matrix(1,0,0,1,641,655)"><path style="fill:none;stroke:#333333;stroke-width:3.0;" d="m 2.1226 0.0672l 134.7338 1.3449l-3.0257 48.5143l-133.6659-0.1920z"/></g><text style="font-weight:bold; font-size: 12px; text-anchor: middle; font-family: arial,helvetica; fill: #333333;" y="679" x="709">Build environment</text><text style="font-weight:bold; font-size: 12px; text-anchor: middle; font-family: arial,helvetica; fill: #333333;" y="696" x="709">for platform C</text></g><g><path style="fill:none;stroke:#333333;stroke-width:2;" d="M 639 496C 609 496 609 578 579 578"/><text style="font-weight:Normal; font-size: 12px; text-anchor: middle; font-family: arial,helvetica; fill: #333333;" y="573" x="600"/><text style="font-weight:Normal; font-size: 12px; text-anchor: start; font-family: arial,helvetica; fill: #333333;" y="537" x="609"/><text style="font-weight:Normal; font-size: 12px; text-anchor: middle; font-family: arial,helvetica; fill: #333333;" y="515" x="643"/></g><g><path style="fill:none;stroke:#333333;stroke-width:2;" d="M 639 557C 609 557 609 575 579 575"/><text style="font-weight:Normal; font-size: 12px; text-anchor: middle; font-family: arial,helvetica; fill: #333333;" y="584" x="598"/><text style="font-weight:Normal; font-size: 12px; text-anchor: start; font-family: arial,helvetica; fill: #333333;" y="566" x="609"/><text style="font-weight:Normal; font-size: 12px; text-anchor: middle; font-family: arial,helvetica; fill: #333333;" y="575" x="630"/></g><g><path style="fill:none;stroke:#333333;stroke-width:2;" d="M 639 617C 609 617 609 575 579 575"/><text style="font-weight:Normal; font-size: 12px; text-anchor: middle; font-family: arial,helvetica; fill: #333333;" y="596" x="584"/><text style="font-weight:Normal; font-size: 12px; text-anchor: start; font-family: arial,helvetica; fill: #333333;" y="596" x="609"/><text style="font-weight:Normal; font-size: 12px; text-anchor: middle; font-family: arial,helvetica; fill: #333333;" y="621" x="619"/></g><g><path style="fill:none;stroke:#333333;stroke-width:2;" d="M 639 680C 609 680 609 577 579 577"/><text style="font-weight:Normal; font-size: 12px; text-anchor: middle; font-family: arial,helvetica; fill: #333333;" y="597" x="575"/><text style="font-weight:Normal; font-size: 12px; text-anchor: start; font-family: arial,helvetica; fill: #333333;" y="628" x="609"/><text style="font-weight:Normal; font-size: 12px; text-anchor: middle; font-family: arial,helvetica; fill: #333333;" y="675" x="619"/></g><g><path style="fill:none;stroke:#333333;stroke-width:3.0;" d="m 826 420l 321 2l 0 27l-321-2z"/><path style="fill:none;stroke:#333333;stroke-width:3.0;" d="m 826 445l 0 291l 321-2l 0-291"/><text style="font-weight:bold; font-size: 12px; text-anchor: middle; font-family: arial,helvetica; fill: #333333;" y="437" x="986">Company Y in city B</text></g><g><g transform="matrix(1,0,0,1,979,591)"><path style="fill:none;stroke:#333333;stroke-width:3.0;" d="m 2.1226 0.0672l 134.7338 1.3449l-3.0257 48.5143l-133.6659-0.1920z"/></g><text style="font-weight:bold; font-size: 12px; text-anchor: middle; font-family: arial,helvetica; fill: #333333;" y="615" x="1047">Build environment 2</text><text style="font-weight:bold; font-size: 12px; text-anchor: middle; font-family: arial,helvetica; fill: #333333;" y="632" x="1047">for platform A</text></g><g><path style="fill:none;stroke:#333333;stroke-width:2;" d="M 977 495C 947 495 947 580 917 580"/><text style="font-weight:Normal; font-size: 12px; text-anchor: middle; font-family: arial,helvetica; fill: #333333;" y="574" x="938"/><text style="font-weight:Normal; font-size: 12px; text-anchor: start; font-family: arial,helvetica; fill: #333333;" y="537" x="947"/><text style="font-weight:Normal; font-size: 12px; text-anchor: middle; font-family: arial,helvetica; fill: #333333;" y="514" x="981"/></g><g><path style="fill:none;stroke:#333333;stroke-width:2;" d="M 977 616C 947 616 947 579 917 579"/><text style="font-weight:Normal; font-size: 12px; text-anchor: middle; font-family: arial,helvetica; fill: #333333;" y="599" x="923"/><text style="font-weight:Normal; font-size: 12px; text-anchor: start; font-family: arial,helvetica; fill: #333333;" y="597" x="947"/><text style="font-weight:Normal; font-size: 12px; text-anchor: middle; font-family: arial,helvetica; fill: #333333;" y="621" x="958"/></g><g><g transform="matrix(1,0,0,1,852,541)"><path style="fill:none;stroke:#333333;stroke-width:3.0;" d="m 0.0347 11.3731l 0.8277 50.2519l 18.2177 11.3473l-0.8282-48.6313"/><path style="fill:none;stroke:#333333;stroke-width:3.0;" d="m 42.2660 0.0258c 0 0-39.7477 7.2944-40.5754 9.7265c-0.8282 2.4316 16.5612 14.5895 16.5612 14.5895l 44.7149-13.7787l-20.7007-10.5372z"/><path style="fill:none;stroke:#333333;stroke-width:3.0;" d="m 62.9667 10.5624l-0.8277 50.2519l-43.0590 12.1581l-0.9088-48.6313"/><path style="fill:none;stroke:#333333;stroke-width:3.0;" d="m 6.6588 30.0146l 5.7965 4.0526"/></g><text style="font-weight:bold; font-size: 12px; text-anchor: middle; font-family: arial,helvetica; fill: #333333;" y="629" x="883">Cluster client</text></g><g><g transform="matrix(1,0,0,1,979,470)"><path style="fill:none;stroke:#333333;stroke-width:3.0;" d="m 2.1226 0.0672l 134.7338 1.3449l-3.0257 48.5143l-133.6659-0.1920z"/></g><text style="font-weight:bold; font-size: 12px; text-anchor: middle; font-family: arial,helvetica; fill: #333333;" y="494" x="1047">Test platform C</text></g><g><g transform="matrix(1,0,0,1,514,539)"><path style="fill:none;stroke:#333333;stroke-width:3.0;" d="m 0.0347 11.3731l 0.8277 50.2519l 18.2177 11.3473l-0.8282-48.6313"/><path style="fill:none;stroke:#333333;stroke-width:3.0;" d="m 42.2660 0.0258c 0 0-39.7477 7.2944-40.5754 9.7265c-0.8282 2.4316 16.5612 14.5895 16.5612 14.5895l 44.7149-13.7787l-20.7007-10.5372z"/><path style="fill:none;stroke:#333333;stroke-width:3.0;" d="m 62.9667 10.5624l-0.8277 50.2519l-43.0590 12.1581l-0.9088-48.6313"/><path style="fill:none;stroke:#333333;stroke-width:3.0;" d="m 6.6588 30.0146l 5.7965 4.0526"/></g><text style="font-weight:bold; font-size: 12px; text-anchor: middle; font-family: arial,helvetica; fill: #333333;" y="627" x="545">Cluster client</text></g><g><g transform="matrix(1,0,0,1,641,471)"><path style="fill:none;stroke:#333333;stroke-width:3.0;" d="m 2.1226 0.0672l 134.7338 1.3449l-3.0257 48.5143l-133.6659-0.1920z"/></g><text style="font-weight:bold; font-size: 12px; text-anchor: middle; font-family: arial,helvetica; fill: #333333;" y="495" x="709">Test platform A</text></g><g><g transform="matrix(1,0,0,1,789,339)"><path style="fill:none;stroke:#333333;stroke-width:3.0;" d="m 1.5803 0.0511l 100.3128 1.0221l-2.2527 36.8708l-99.5177-0.1459z"/></g><text style="font-weight:bold; font-size: 12px; text-anchor: middle; font-family: arial,helvetica; fill: #333333;" y="363" x="840">CI Broker</text></g><g><path style="fill:none;stroke:#333333;stroke-width:2;" d="M 544 535C 544 535 540.3882 435.5371 572 404 623.3734 352.7480 785 359 785 359"/><polyline style="fill:#ffffff;stroke:#333333;stroke-width:2;fill-opacity:0;" points="767,368 785,359 768,348"/><text style="font-weight:Normal; font-size: 12px; text-anchor: middle; font-family: arial,helvetica; fill: #333333;" y="348" x="768"/><text style="font-weight:Normal; font-size: 12px; text-anchor: start; font-family: arial,helvetica; fill: #333333;" y="392" x="572"/><text style="font-weight:Normal; font-size: 12px; text-anchor: middle; font-family: arial,helvetica; fill: #333333;" y="520" x="531"/><polyline style="fill:#ffffff;stroke:#333333;stroke-width:2;fill-opacity:0;" points="553,517 544,535 533,517"/></g><g><g transform="matrix(1,0,0,1,641,532)"><path style="fill:none;stroke:#333333;stroke-width:3.0;" d="m 2.1226 0.0672l 134.7338 1.3449l-3.0257 48.5143l-133.6659-0.1920z"/></g><text style="font-weight:bold; font-size: 12px; text-anchor: middle; font-family: arial,helvetica; fill: #333333;" y="556" x="709">Test platform B</text></g><g><g transform="matrix(1,0,0,1,641,592)"><path style="fill:none;stroke:#333333;stroke-width:3.0;" d="m 2.1226 0.0672l 134.7338 1.3449l-3.0257 48.5143l-133.6659-0.1920z"/></g><text style="font-weight:bold; font-size: 12px; text-anchor: middle; font-family: arial,helvetica; fill: #333333;" y="616" x="709">Build environment 1</text><text style="font-weight:bold; font-size: 12px; text-anchor: middle; font-family: arial,helvetica; fill: #333333;" y="633" x="709">for platform A</text></g><g><path style="fill:none;stroke:#333333;stroke-width:2;" d="M 884 381C 884 459 883 459 883 537"/><polyline style="fill:#ffffff;stroke:#333333;stroke-width:2;fill-opacity:0;" points="873,519 883,537 893,519"/><text style="font-weight:Normal; font-size: 12px; text-anchor: middle; font-family: arial,helvetica; fill: #333333;" y="523" x="897"/><text style="font-weight:Normal; font-size: 12px; text-anchor: start; font-family: arial,helvetica; fill: #333333;" y="459" x="883"/><text style="font-weight:Normal; font-size: 12px; text-anchor: middle; font-family: arial,helvetica; fill: #333333;" y="392" x="898"/><polyline style="fill:#ffffff;stroke:#333333;stroke-width:2;fill-opacity:0;" points="873,398 884,381 893,398"/></g><g><g transform="matrix(1,0,0,1,979,655)"><path style="fill:none;stroke:#333333;stroke-width:3.0;" d="m 2.1226 0.0672l 134.7338 1.3449l-3.0257 48.5143l-133.6659-0.1920z"/></g><text style="font-weight:bold; font-size: 12px; text-anchor: middle; font-family: arial,helvetica; fill: #333333;" y="679" x="1047">Build environment for</text><text style="font-weight:bold; font-size: 12px; text-anchor: middle; font-family: arial,helvetica; fill: #333333;" y="696" x="1047">platform B</text></g><g><path style="fill:none;stroke:#333333;stroke-width:2;" d="M 917 577C 947 577 947 680 977 680"/><text style="font-weight:Normal; font-size: 12px; text-anchor: middle; font-family: arial,helvetica; fill: #333333;" y="659" x="980"/><text style="font-weight:Normal; font-size: 12px; text-anchor: start; font-family: arial,helvetica; fill: #333333;" y="628" x="947"/><text style="font-weight:Normal; font-size: 12px; text-anchor: middle; font-family: arial,helvetica; fill: #333333;" y="581" x="936"/></g><g transform="matrix(1,0,0,1,21,-18)"><g transform="matrix(1,0,0,1,960,358)"><path style="fill:none;stroke:#333333;stroke-width:3.0;" d="m 1.5648 0.0498l 99.3293 0.9952l-2.2306 35.9005l-98.5420-0.1421z"/></g><text style="font-weight:bold; font-size: 12px; text-anchor: middle; font-family: arial,helvetica; fill: #333333;" y="382" x="1010">SCM</text></g><g><path style="fill:none;stroke:#333333;stroke-width:2;" d="M 895 358C 936 358 936 358 977 358"/><polyline style="fill:#ffffff;stroke:#333333;stroke-width:2;fill-opacity:0;" points="959,368 977,358 959,348"/><text style="font-weight:Normal; font-size: 12px; text-anchor: middle; font-family: arial,helvetica; fill: #333333;" y="343" x="963"/><text style="font-weight:Normal; font-size: 12px; text-anchor: start; font-family: arial,helvetica; fill: #333333;" y="358" x="936"/><text style="font-weight:Normal; font-size: 12px; text-anchor: middle; font-family: arial,helvetica; fill: #333333;" y="343" x="907"/><polyline style="fill:#ffffff;stroke:#333333;stroke-width:2;fill-opacity:0;" points="912,368 895,358 912,348"/></g><text style="font-weight:Normal; font-size: 16px; text-anchor: end; font-family: Arial; fill: #ccc;" y="735" x="1147">http://sketchboard.io</text></svg>