<svg height="499" width="638" viewBox="734 159 638 499" style="background-color:transparent;" preserveAspectRatio="xMinYMin meet" xmlns:xlink="http://www.w3.org/1999/xlink" xmlns="http://www.w3.org/2000/svg"><g><g transform="matrix(1,0,0,1,749,315)"><path style="fill:none;stroke:#333333;stroke-width:0.1581687927631579;" d="m 268.0567 0.3389c-24.5081 0-46.1917 18.4217-59.5126 46.7153c-24.9271-19.3081-58.2269-30.5123-90.5332-27.9738c-48.0695 3.7782-77.6388 36.6906-71.9085 76.4524c-31.4043 17.0825-48.9977 38.3666-44.9582 59.4271c 3.3056 17.2339 20.5663 31.5235 46.7467 41.4732c-7.6311 18.1939-7.7598 37.1870 1.2951 53.7207c 19.9869 36.4949 77.5814 47.5376 130.3727 25.7005c 1.0418 2.0537 2.1158 4.0809 3.2686 6.0774c 27.7044 47.9685 77.0659 60.1219 110.2062 27.1385c 10.7850-10.7338 18.4826-24.9559 23.0650-40.8704c 19.6701 36.6565 60.7241 43.4887 96.6386 13.9174c 9.8092-8.0773 18.3125-18.0937 25.2852-29.3191c 8.2891 9.8051 17.2990 18.3610 26.7653 25.1905c 47.2830 34.1119 88.5930 12.2618 92.3216-48.8038c 0.6716-10.9976 0.0999-22.4930-1.6035-34.1896c 33.4215-11.6338 53.4970-27.2708 51.9270-43.8392c-1.2023-12.6893-14.9216-24.0156-37.1877-32.8450c 10.7497-15.0820 18.2874-29.9880 21.5849-43.6074c 11.7388-48.4847-35.2609-62.3836-105.0259-31.0353c-3.0762 1.3821-6.1315 2.8529-9.1890 4.3605c-25.3626-44.9977-91.3070-55.6817-148.4423-23.6590c-3.7292 2.0899-7.3265 4.2950-10.7924 6.6338c-13.1349-18.9849-30.8422-30.6644-50.3236-30.6644z"/></g></g><g><g transform="matrix(1,0,0,1,1002,242)"><path style="fill:none;stroke:#333333;stroke-width:0.9803921568627451;" d="m 0.51 0.2714l 100.98 0l 0 37.4571l-100.98 0z"/></g><text style="font-weight:bold; font-size: 12px; text-anchor: middle; font-family: arial,helvetica; fill: #333333;" y="266" x="1053">CI Broker</text></g><g><g transform="matrix(1,0,0,1,1002,169)"><path style="fill:none;stroke:#333333;stroke-width:0.9803921568627451;" d="m 0.51 0.2714l 100.98 0l 0 37.4571l-100.98 0z"/></g><text style="font-weight:bold; font-size: 12px; text-anchor: middle; font-family: arial,helvetica; fill: #333333;" y="193" x="1053">CI Server</text></g><g><g transform="matrix(1,0,0,1,1143,169)"><path style="fill:none;stroke:#333333;stroke-width:1.2987012987012987;" d="m 0.385 0.2714l 76.23 0l 0 37.4571l-76.23 0z"/></g><text style="font-weight:bold; font-size: 12px; text-anchor: middle; font-family: arial,helvetica; fill: #333333;" y="193" x="1181">SCM</text></g><g><path style="fill:none;stroke:#333333;stroke-width:1;" d="M 1106 188C 1123.5 188 1123.5 188 1141 188"/><polyline style="fill:#ffffff;stroke:#333333;stroke-width:1;fill-opacity:0;" points="1130,194 1141,188 1130,182"/><text style="font-weight:Normal; font-size: 12px; text-anchor: middle; font-family: arial,helvetica; fill: #333333;" y="173" x="1125"/><text style="font-weight:Normal; font-size: 12px; text-anchor: start; font-family: arial,helvetica; fill: #333333;" y="188" x="1123"/><text style="font-weight:Normal; font-size: 12px; text-anchor: middle; font-family: arial,helvetica; fill: #333333;" y="173" x="1120"/><polyline style="fill:#ffffff;stroke:#333333;stroke-width:1;fill-opacity:0;" points="1116,194 1106,188 1116,182"/></g><g><path style="fill:none;stroke:#333333;stroke-width:1;" d="M 1053 209C 1053 224.5 1053 224.5 1053 240"/><polyline style="fill:#ffffff;stroke:#333333;stroke-width:1;fill-opacity:0;" points="1047,229 1053,240 1059,229"/><text style="font-weight:Normal; font-size: 12px; text-anchor: middle; font-family: arial,helvetica; fill: #333333;" y="224" x="1068"/><text style="font-weight:Normal; font-size: 12px; text-anchor: start; font-family: arial,helvetica; fill: #333333;" y="224" x="1053"/><text style="font-weight:Normal; font-size: 12px; text-anchor: middle; font-family: arial,helvetica; fill: #333333;" y="223" x="1068"/><polyline style="fill:#ffffff;stroke:#333333;stroke-width:1;fill-opacity:0;" points="1047,219 1053,209 1059,219"/></g><g><g transform="matrix(1,0,0,1,810,515)"><path style="fill:none;stroke:#333333;stroke-width:0.4366812227074236;" d="m 1.145 0.2857l 226.71 0l 0 39.4286l-226.71 0z"/></g><text style="font-weight:bold; font-size: 12px; text-anchor: middle; font-family: arial,helvetica; fill: #333333;" y="539" x="924">Volunteered test platform C</text></g><g><g transform="matrix(1,0,0,1,1067,411)"><path style="fill:none;stroke:#333333;stroke-width:0.4366812227074236;" d="m 1.145 0.2714l 226.71 0l 0 37.4571l-226.71 0z"/></g><text style="font-weight:bold; font-size: 12px; text-anchor: middle; font-family: arial,helvetica; fill: #333333;" y="435" x="1181">Volunteered build environment A</text></g><g><g transform="matrix(1,0,0,1,812,410)"><path style="fill:none;stroke:#333333;stroke-width:0.4366812227074236;" d="m 1.145 0.2857l 226.71 0l 0 39.4286l-226.71 0z"/></g><text style="font-weight:bold; font-size: 12px; text-anchor: middle; font-family: arial,helvetica; fill: #333333;" y="434" x="926">Volunteered test platform A</text></g><g><g transform="matrix(1,0,0,1,810,459)"><path style="fill:none;stroke:#333333;stroke-width:0.4366812227074236;" d="m 1.145 0.2857l 226.71 0l 0 39.4286l-226.71 0z"/></g><text style="font-weight:bold; font-size: 12px; text-anchor: middle; font-family: arial,helvetica; fill: #333333;" y="483" x="924">Volunteered test platform B</text></g><g><rect style="fill: #000000;fill-opacity: 0;stroke-opacity:0;stroke-width: 1;stroke:%stroke%;" rx="4" height="49" width="154" y="361" x="1008"/><text style="font-weight:Normal; font-size: 12px; text-anchor: start; font-family: arial,helvetica; fill: #333333;" y="382" x="1008"><tspan x="1008" font-weight="bold" font-size="24" dy="14">Test cloud</tspan></text></g><g><g transform="matrix(1,0,0,1,1067,462)"><path style="fill:none;stroke:#333333;stroke-width:0.4385964912280702;" d="m 1.14 0.2714l 225.7200 0l 0 37.4571l-225.7200 0z"/></g><text style="font-weight:bold; font-size: 12px; text-anchor: middle; font-family: arial,helvetica; fill: #333333;" y="486" x="1181">Volunteered build environment B</text></g><g><g transform="matrix(1,0,0,1,1067,516)"><path style="fill:none;stroke:#333333;stroke-width:0.4366812227074236;" d="m 1.145 0.2714l 226.71 0l 0 37.4571l-226.71 0z"/></g><text style="font-weight:bold; font-size: 12px; text-anchor: middle; font-family: arial,helvetica; fill: #333333;" y="540" x="1181">Volunteered build environment C</text></g><g><path style="fill:none;stroke:#333333;stroke-width:1;" d="M 1053 282C 1053 297.5 1053 297.5 1053 313"/><polyline style="fill:#ffffff;stroke:#333333;stroke-width:1;fill-opacity:0;" points="1047,302 1053,313 1059,302"/><text style="font-weight:Normal; font-size: 12px; text-anchor: middle; font-family: arial,helvetica; fill: #333333;" y="297" x="1068"/><text style="font-weight:Normal; font-size: 12px; text-anchor: start; font-family: arial,helvetica; fill: #333333;" y="297" x="1053"/><text style="font-weight:Normal; font-size: 12px; text-anchor: middle; font-family: arial,helvetica; fill: #333333;" y="296" x="1068"/><polyline style="fill:#ffffff;stroke:#333333;stroke-width:1;fill-opacity:0;" points="1047,292 1053,282 1059,292"/></g><text style="font-weight:Normal; font-size: 16px; text-anchor: end; font-family: Arial; fill: #ccc;" y="643" x="1357">http://sketchboard.io</text></svg>