<svg height="156" width="399" viewBox="670 194 399 156" style="background-color:transparent;" preserveAspectRatio="xMinYMin meet" xmlns:xlink="http://www.w3.org/1999/xlink" xmlns="http://www.w3.org/2000/svg"><g transform="matrix(1,0,0,1,-766,-313)"><g transform="matrix(1,0,0,1,1453,517)"><path style="fill:none;stroke:#333333;stroke-width:3.0;" d="m 5.6861 0.0578l 360.9292 1.1566l-8.1054 41.7223l-358.0685-0.1651z"/></g><text style="font-weight:bold; font-size: 12px; text-anchor: middle; font-family: arial,helvetica; fill: #333333;" y="541" x="1636">Test case</text></g><g transform="matrix(1,0,0,1,-168,-75)"><g transform="matrix(1,0,0,1,855,323)"><path style="fill:none;stroke:#333333;stroke-width:3.0;" d="m 5.6706 0.0578l 359.9458 1.1566l-8.0833 41.7223l-357.0928-0.1651z"/></g><text style="font-weight:bold; font-size: 12px; text-anchor: middle; font-family: arial,helvetica; fill: #333333;" y="347" x="1038">Platform abstraction layer</text></g><g transform="matrix(1,0,0,1,-408,-50)"><g transform="matrix(1,0,0,1,1093,342)"><path style="fill:none;stroke:#333333;stroke-width:3.0;" d="m 1.1465 0.0578l 72.7759 1.1566l-1.6343 41.7223l-72.1991-0.1651z"/></g><text style="font-weight:bold; font-size: 12px; text-anchor: middle; font-family: arial,helvetica; fill: #333333;" y="366" x="1130">IoT Lab</text></g><g transform="matrix(1,0,0,1,-79,-52)"><g transform="matrix(1,0,0,1,839,344)"><path style="fill:none;stroke:#333333;stroke-width:3.0;" d="m 1.1465 0.0578l 72.7759 1.1566l-1.6343 41.7223l-72.1991-0.1651z"/></g><text style="font-weight:bold; font-size: 12px; text-anchor: middle; font-family: arial,helvetica; fill: #333333;" y="368" x="876">COOJA</text></g><g transform="matrix(1,0,0,1,-128,-78)"><g transform="matrix(1,0,0,1,962,370)"><path style="fill:none;stroke:#333333;stroke-width:3.0;" d="m 1.6268 0.0578l 103.2631 1.1566l-2.3190 41.7223l-102.4447-0.1651z"/></g><text style="font-weight:bold; font-size: 12px; text-anchor: middle; font-family: arial,helvetica; fill: #333333;" y="394" x="1014">Custom testbed</text></g><g transform="matrix(1,0,0,1,-114,-40)"><g transform="matrix(1,0,0,1,1051,331)"><path style="fill:none;stroke:#333333;stroke-width:3.0;" d="m 1.6733 0.0592l 106.2135 1.1835l-2.3852 42.6925l-105.3717-0.1690z"/></g><text style="font-weight:bold; font-size: 12px; text-anchor: middle; font-family: arial,helvetica; fill: #333333;" y="355" x="1105">Single IoT device</text></g><text style="font-weight:Normal; font-size: 16px; text-anchor: end; font-family: Arial; fill: #ccc;" y="335" x="1054">http://sketchboard.io</text></svg>